<?xml version="1.0" standalone="no"?>
<!DOCTYPE svg PUBLIC "-//W3C//DTD SVG 20010904//EN"
 "http://www.w3.org/TR/2001/REC-SVG-20010904/DTD/svg10.dtd">
<svg version="1.0" xmlns="http://www.w3.org/2000/svg"
 width="1920.000000pt" height="1200.000000pt" viewBox="0 0 1920.000000 1200.000000"
 preserveAspectRatio="xMidYMid meet">

<g transform="translate(0.000000,1200.000000) scale(0.100000,-0.100000)"
fill="#000000" stroke="none">
<path d="M0 8961 c0 -2884 1 -3039 17 -3046 10 -3 659 -5 1443 -4 784 1 1904
-1 2490 -5 586 -3 1488 -8 2005 -11 517 -3 1145 -8 1395 -11 250 -3 820 -7
1265 -9 816 -3 1070 -8 1400 -25 99 -5 329 -10 510 -10 182 0 344 -3 360 -5
60 -8 1385 -30 1565 -25 334 8 2576 -7 2594 -17 5 -3 153 -5 330 -4 176 1 384
-3 461 -9 160 -11 1351 -16 1525 -7 159 9 299 25 360 42 14 4 48 6 77 5 29 0
61 4 72 10 11 5 32 11 46 12 14 1 31 8 37 15 6 7 20 13 32 13 11 0 32 12 45
25 13 14 27 25 31 25 4 0 10 9 13 20 3 11 13 20 22 20 14 0 15 3 5 15 -10 13
-9 15 11 16 22 0 23 1 4 9 -11 5 -14 9 -7 9 8 1 10 9 6 26 -5 19 -2 25 10 25
12 0 16 11 16 48 0 27 7 57 16 70 9 13 14 34 11 48 -2 13 0 24 6 24 5 0 7 9 4
21 -9 36 28 209 45 209 11 0 10 38 -2 45 -15 9 -12 35 4 35 14 0 26 31 25 65
-1 16 -2 16 -9 -5 -6 -19 -8 -9 -8 35 0 33 4 69 9 80 7 16 8 14 4 -10 l-5 -30
15 25 c8 14 14 43 15 65 0 28 6 46 20 58 11 9 20 23 20 31 0 8 7 16 15 20 8 3
15 12 15 20 0 8 9 18 20 21 11 3 20 11 20 17 0 5 6 8 13 5 10 -4 13 2 9 19 -3
17 0 24 12 24 9 0 16 8 16 20 0 11 6 20 14 20 9 0 12 8 8 25 -3 18 -1 24 9 20
8 -2 25 10 39 27 46 57 168 176 197 190 72 38 98 55 114 73 9 11 37 31 63 43
25 13 48 27 51 33 4 5 11 7 17 3 5 -3 22 5 36 19 15 14 44 33 64 41 21 9 42
25 48 37 7 11 17 18 25 15 7 -2 16 -2 19 2 4 3 18 8 31 9 20 3 24 -1 28 -29 2
-18 4 976 5 2210 l2 2242 -9600 0 -9600 0 0 -3039z m18000 1504 c0 -8 -7 -15
-15 -15 -8 0 -15 7 -15 15 0 8 7 15 15 15 8 0 15 -7 15 -15z m-12160 -130 c0
-8 -7 -15 -15 -15 -8 0 -15 7 -15 15 0 8 7 15 15 15 8 0 15 -7 15 -15z m-330
-615 c0 -5 -4 -10 -10 -10 -5 0 -10 5 -10 10 0 6 5 10 10 10 6 0 10 -4 10 -10z
m5786 -67 c-7 -7 -26 7 -26 19 0 6 6 6 15 -2 9 -7 13 -15 11 -17z m17 -35 c3
-13 12 -46 20 -74 23 -77 67 -298 75 -372 4 -37 6 -164 6 -282 -1 -185 -5
-235 -28 -359 -36 -200 -77 -345 -156 -546 -49 -126 -239 -445 -312 -525 -13
-14 -43 -50 -68 -80 -81 -101 -214 -226 -290 -273 l-45 -28 33 28 c18 15 32
34 32 41 0 8 5 10 13 6 7 -5 6 0 -3 11 -11 14 -12 19 -2 22 6 3 10 9 6 14 -8
14 -24 0 -24 -22 0 -10 -6 -19 -13 -19 -7 0 -21 -11 -31 -25 -11 -14 -25 -24
-33 -21 -7 3 -13 1 -13 -4 0 -6 5 -10 12 -10 8 0 9 -3 2 -10 -5 -5 -19 -7 -32
-4 -21 6 -21 8 16 43 90 89 146 153 127 147 -17 -6 -16 -3 5 17 19 19 28 22
39 14 10 -9 16 -7 26 6 6 9 15 14 18 10 4 -3 7 -2 7 4 0 5 11 22 25 37 14 15
25 32 25 38 0 7 -7 3 -15 -8 -17 -22 -20 -12 -4 17 6 11 17 18 24 15 17 -6 39
47 38 93 -1 36 28 86 42 73 5 -4 5 -2 2 4 -3 6 2 18 11 27 24 23 42 45 42 53
0 4 16 22 35 41 36 35 38 39 39 87 1 17 7 31 16 33 12 4 13 3 1 -5 -9 -7 -11
-16 -6 -28 7 -17 9 -16 15 6 13 40 11 50 -7 50 -17 1 -17 1 0 14 10 8 19 24
20 35 1 14 6 20 15 16 10 -4 12 0 8 11 -3 9 2 28 13 42 28 41 35 87 17 114
-14 20 -14 43 0 88 4 13 6 13 14 0 7 -12 11 -10 18 10 11 29 5 41 -9 20 -6
-10 -7 -4 -3 20 4 19 11 40 16 47 5 7 7 17 4 22 -11 17 5 63 20 57 8 -3 20 11
33 37 15 33 18 51 11 82 -4 22 -9 31 -10 20 -1 -15 -4 -13 -10 9 -5 16 -7 33
-4 38 8 13 34 -39 34 -69 0 -13 4 -22 9 -19 5 3 7 23 4 45 -3 23 -1 41 6 45 6
4 11 12 11 17 0 6 -4 7 -10 4 -5 -3 -10 -1 -10 4 0 6 5 11 11 11 13 0 4 80
-10 90 -4 3 -13 19 -20 37 -11 26 -10 40 2 82 8 28 11 51 7 53 -10 4 0 98 10
98 4 0 10 -14 14 -31 4 -20 10 -28 17 -23 8 4 9 3 5 -4 -4 -7 -14 -12 -21 -12
-8 0 -12 -6 -10 -12 10 -31 12 -114 3 -131 -7 -14 -7 -17 1 -13 6 4 11 1 11
-7 0 -13 28 -77 34 -77 2 0 1 11 -2 25 -2 14 -8 25 -14 25 -5 0 -4 10 3 21 6
12 8 34 5 50 -3 15 -1 31 4 34 6 3 10 -2 11 -12 0 -10 3 -13 5 -6 3 6 1 29 -5
49 -6 20 -7 42 -3 48 3 6 5 22 3 35 -2 15 1 21 8 17 6 -4 11 0 11 8 0 9 -5 15
-11 14 -7 -2 -12 22 -13 67 -2 69 -2 69 10 30 7 -22 13 -48 13 -59 1 -11 6
-16 15 -13 7 3 19 0 25 -6 10 -9 10 -6 2 16 -13 35 -14 40 -2 33 5 -4 4 10 -2
30 -8 27 -8 37 2 43 8 5 10 18 6 34 -12 44 -12 87 -1 87 7 0 7 3 0 8 -15 9
-35 80 -24 84 7 3 4 32 -15 143 -6 38 -6 39 10 20 17 -19 17 -19 10 10 -3 16
-10 32 -14 35 -4 3 -9 33 -10 67 -2 62 -1 64 40 72 4 0 9 -9 12 -21z m-85
-259 c-3 -8 -7 -3 -11 10 -4 17 -3 21 5 13 5 -5 8 -16 6 -23z m2 -104 c0 -5
-5 -3 -10 5 -5 8 -10 20 -10 25 0 6 5 3 10 -5 5 -8 10 -19 10 -25z m-250 -23
c0 -4 -9 -8 -20 -9 -16 -1 -17 1 -7 12 12 13 27 11 27 -3z m4830 -78 c0 -14
-21 -19 -33 -7 -9 9 13 34 24 27 5 -3 9 -12 9 -20z m-4582 -29 c-3 -3 -9 2
-12 12 -6 14 -5 15 5 6 7 -7 10 -15 7 -18z m4937 -15 c0 -22 -29 -18 -33 3 -3
14 1 18 15 15 10 -2 18 -10 18 -18z m-5035 -166 c0 -8 -4 -12 -10 -9 -5 3 -10
10 -10 16 0 5 5 9 10 9 6 0 10 -7 10 -16z m-30 -13 c0 -6 -4 -13 -10 -16 -5
-3 -10 1 -10 9 0 9 5 16 10 16 6 0 10 -4 10 -9z m5510 -7 c0 -8 -4 -12 -10 -9
-5 3 -10 10 -10 16 0 5 5 9 10 9 6 0 10 -7 10 -16z m-5730 -22 c0 -15 -2 -15
-10 -2 -13 20 -13 33 0 25 6 -3 10 -14 10 -23z m213 -58 c-2 -7 0 -15 6 -19 6
-3 11 -11 11 -17 0 -7 -6 -6 -15 2 -8 7 -15 23 -15 37 0 14 -4 21 -10 18 -6
-4 -10 7 -10 27 l0 33 19 -35 c10 -19 16 -40 14 -46z m-7113 62 c0 -3 -4 -8
-10 -11 -5 -3 -10 -1 -10 4 0 6 5 11 10 11 6 0 10 -2 10 -4z m7139 -60 c-9 -8
-10 -7 -5 7 3 10 7 24 7 30 1 7 3 4 6 -7 3 -10 -1 -23 -8 -30z m-259 -63 c-9
-15 -10 -12 -6 16 3 18 7 43 8 55 1 11 3 4 5 -16 2 -21 -1 -46 -7 -55z m295
-139 c-3 -24 -10 -44 -15 -44 -5 0 -11 -8 -13 -17 -2 -10 -4 3 -4 30 0 26 3
47 8 47 5 0 9 15 9 33 1 27 2 29 11 14 7 -11 8 -37 4 -63z m-72 -24 c-3 -11
-7 -20 -9 -20 -2 0 -4 9 -4 20 0 11 4 20 9 20 5 0 7 -9 4 -20z m7207 -5 c9
-11 10 -19 2 -27 -14 -14 -32 -1 -32 23 0 23 13 25 30 4z m-7250 -51 c0 -22
-16 -17 -17 6 -1 11 2 18 8 15 5 -4 9 -13 9 -21z m123 2 c4 -10 1 -13 -8 -9
-8 3 -12 9 -9 14 7 12 11 11 17 -5z m-36 -118 c-15 -9 -19 -4 -11 16 5 14 9
15 15 5 5 -8 3 -17 -4 -21z m-130 -25 c-3 -10 -5 -2 -5 17 0 19 2 27 5 18 2
-10 2 -26 0 -35z m-7947 -13 c0 -5 -2 -10 -4 -10 -3 0 -8 5 -11 10 -3 6 -1 10
4 10 6 0 11 -4 11 -10z m7932 -44 c6 4 8 -2 6 -12 -2 -10 -12 -20 -22 -22 -15
-3 -18 1 -14 22 3 15 1 29 -4 32 -4 3 -5 10 -1 17 4 7 10 0 16 -16 5 -15 13
-24 19 -21z m145 18 c2 -13 1 -15 -4 -4 -3 8 -11 19 -17 23 -7 6 -6 7 4 4 8
-2 16 -12 17 -23z m-7532 -44 c-5 -8 -11 -8 -17 -2 -6 6 -7 16 -3 22 5 8 11 8
17 2 6 -6 7 -16 3 -22z m-3105 -5 c0 -8 -7 -15 -15 -15 -8 0 -15 7 -15 15 0 8
7 15 15 15 8 0 15 -7 15 -15z m10500 -109 c0 -3 -4 -8 -10 -11 -5 -3 -10 -1
-10 4 0 6 5 11 10 11 6 0 10 -2 10 -4z m57 -28 c-3 -8 -6 -5 -6 6 -1 11 2 17
5 13 3 -3 4 -12 1 -19z m-68 -5 c-1 -20 -46 -103 -52 -97 -4 4 -7 2 -7 -4 0
-7 5 -12 10 -12 6 0 10 -12 9 -27 0 -16 -3 -21 -6 -13 -2 8 -7 22 -10 30 -3
10 -9 6 -18 -15 -7 -16 -14 -28 -14 -25 -2 13 42 125 57 146 17 23 33 31 31
17z m74 -166 c-6 -28 -17 -35 -29 -16 -3 6 -1 14 5 18 9 6 9 15 1 37 l-11 29
19 -21 c13 -14 18 -30 15 -47z m-196 31 c-3 -8 -6 -5 -6 6 -1 11 2 17 5 13 3
-3 4 -12 1 -19z m173 -68 c0 -5 -4 -10 -10 -10 -5 0 -10 -10 -10 -22 0 -12 -3
-19 -6 -15 -9 9 5 57 16 57 6 0 10 -4 10 -10z m4830 -20 c0 -5 -4 -10 -10 -10
-5 0 -10 5 -10 10 0 6 5 10 10 10 6 0 10 -4 10 -10z m-5031 -67 c-7 -21 -17
-43 -22 -50 -5 -7 -6 -17 -2 -23 7 -11 -11 -40 -26 -40 -4 0 -4 14 1 30 5 17
7 30 5 30 -3 0 7 16 20 36 14 20 25 44 25 52 0 8 3 13 6 9 3 -3 0 -23 -7 -44z
m-9741 -174 c-2 -6 -8 -10 -13 -10 -5 0 -11 4 -13 10 -2 6 4 11 13 11 9 0 15
-5 13 -11z m9706 -143 c-10 -20 -22 -36 -26 -36 -5 0 1 18 13 40 28 49 36 46
13 -4z m-94 -36 c0 -12 -52 -61 -59 -55 -4 5 48 65 56 65 2 0 3 -4 3 -10z m80
-65 c0 -8 -8 -15 -18 -15 -10 0 -24 -6 -31 -12 -10 -11 -12 -9 -9 7 2 11 8 20
15 20 6 0 15 3 19 8 12 12 24 8 24 -8z m-143 -27 c-3 -8 -6 -5 -6 6 -1 11 2
17 5 13 3 -3 4 -12 1 -19z m-16 -45 c-12 -20 -14 -14 -5 12 4 9 9 14 11 11 3
-2 0 -13 -6 -23z m-9021 -203 c0 -5 -7 -10 -15 -10 -8 0 -15 5 -15 10 0 6 7
10 15 10 8 0 15 -4 15 -10z m14870 -30 c0 -5 -5 -10 -11 -10 -5 0 -7 5 -4 10
3 6 8 10 11 10 2 0 4 -4 4 -10z m-5915 -49 c-3 -6 -11 -11 -16 -11 -5 0 -4 6
3 14 14 16 24 13 13 -3z m-85 -55 c0 -3 -4 -8 -10 -11 -5 -3 -10 -1 -10 4 0 6
5 11 10 11 6 0 10 -2 10 -4z m3918 -24 c3 -16 -2 -22 -17 -22 -24 0 -35 15
-27 36 9 23 40 13 44 -14z m2217 -102 c3 -5 1 -10 -4 -10 -6 0 -11 5 -11 10 0
6 2 10 4 10 3 0 8 -4 11 -10z m-12631 -21 c-3 -5 -10 -7 -15 -3 -5 3 -7 10 -3
15 3 5 10 7 15 3 5 -3 7 -10 3 -15z m696 1 c0 -5 -5 -10 -11 -10 -5 0 -7 5 -4
10 3 6 8 10 11 10 2 0 4 -4 4 -10z m10490 0 c0 -5 -4 -10 -10 -10 -5 0 -10 5
-10 10 0 6 5 10 10 10 6 0 10 -4 10 -10z m884 -286 c17 -7 22 -39 7 -48 -25
-16 -55 26 -34 47 8 8 8 8 27 1z m-10264 -108 c0 -3 -4 -8 -10 -11 -5 -3 -10
-1 -10 4 0 6 5 11 10 11 6 0 10 -2 10 -4z m10480 -6 c0 -5 -4 -10 -10 -10 -5
0 -10 5 -10 10 0 6 5 10 10 10 6 0 10 -4 10 -10z m1897 -252 c-3 -8 -6 -5 -6
6 -1 11 2 17 5 13 3 -3 4 -12 1 -19z m-937 -128 c0 -5 -4 -10 -10 -10 -5 0
-10 5 -10 10 0 6 5 10 10 10 6 0 10 -4 10 -10z m-1450 -20 c0 -5 -2 -10 -4
-10 -3 0 -8 5 -11 10 -3 6 -1 10 4 10 6 0 11 -4 11 -10z"/>
<path d="M11277 9568 c8 -44 13 -48 13 -10 0 17 -4 34 -10 37 -6 4 -7 -6 -3
-27z"/>
<path d="M11280 9411 c0 -5 7 -11 14 -14 10 -4 13 -1 9 9 -6 15 -23 19 -23 5z"/>
<path d="M11113 8288 c0 -26 3 -48 7 -48 4 0 6 10 2 22 -3 12 -1 19 4 15 13
-8 12 35 -1 49 -7 7 -10 -4 -12 -38z"/>
<path d="M11067 8145 c-4 -8 -2 -17 3 -20 6 -4 10 3 10 14 0 25 -6 27 -13 6z"/>
<path d="M11091 8114 c0 -11 3 -14 6 -6 3 7 2 16 -1 19 -3 4 -6 -2 -5 -13z"/>
<path d="M10626 7252 l-19 -27 24 22 c12 12 21 24 18 27 -2 2 -13 -8 -23 -22z"/>
<path d="M5021 5380 c-49 -11 -72 -26 -65 -44 6 -15 -83 -38 -92 -25 -3 5 -11
6 -17 2 -16 -10 -57 -11 -51 -1 3 4 14 8 25 8 10 0 19 5 19 10 0 15 -50 6 -60
-10 -11 -17 -159 -32 -201 -20 -16 5 -138 9 -272 9 -133 1 -316 3 -407 6 -225
6 -289 5 -400 -6 -121 -12 -385 -24 -517 -24 -57 0 -103 -3 -103 -6 0 -7 157
-25 173 -21 5 2 53 4 107 6 55 3 104 7 110 11 5 3 10 1 10 -6 0 -8 4 -8 15 1
9 8 15 8 15 2 0 -6 19 -9 48 -7 33 3 40 2 22 -4 l-25 -8 30 -5 c19 -3 14 -4
-13 -3 -23 1 -45 -2 -48 -7 -4 -6 -10 -5 -15 3 -6 9 -12 10 -16 4 -5 -5 -42
-11 -83 -12 -47 -1 -74 -6 -72 -12 3 -15 -15 -14 -21 2 -3 7 -6 4 -6 -7 -1
-16 5 -18 44 -14 26 3 42 2 39 -4 -6 -9 312 -10 330 0 15 8 336 9 336 0 0 -4
8 -8 18 -8 14 0 15 2 2 10 -13 8 -13 10 2 10 9 0 18 -5 20 -12 3 -7 24 -11 60
-9 31 1 59 -3 63 -8 3 -6 55 -10 126 -10 66 0 124 -3 130 -7 25 -15 131 -18
587 -14 75 1 128 -3 136 -9 7 -6 42 -13 77 -16 35 -3 86 -8 114 -10 29 -2 55
1 64 8 12 10 13 9 6 -3 -7 -12 -6 -13 6 -4 10 8 18 6 32 -8 16 -17 16 -18 -2
-18 -10 0 -24 -7 -31 -15 -7 -8 -16 -12 -21 -9 -5 3 -16 1 -25 -4 -15 -8 -14
-10 2 -17 17 -7 17 -9 -6 -15 -14 -5 -61 -8 -105 -8 -49 0 -70 3 -55 7 24 7
23 8 -9 13 -19 3 -50 2 -69 -3 -21 -4 -44 -3 -59 4 -17 8 -27 7 -35 -1 -7 -7
-26 -12 -44 -12 -17 0 -44 -4 -60 -10 -16 -5 -69 -11 -119 -14 -49 -2 -130 -8
-180 -12 -49 -4 -87 -4 -84 0 4 4 22 8 40 10 125 13 160 19 150 29 -10 10 -22
12 -141 23 -111 11 -405 7 -485 -6 -38 -6 -77 -18 -86 -26 -8 -8 -24 -14 -35
-14 -27 0 -64 -11 -64 -19 0 -4 20 -7 45 -7 25 0 45 3 45 7 0 4 9 9 20 12 11
3 18 1 15 -3 -3 -5 102 -8 234 -7 132 0 243 -2 247 -6 4 -4 -1 -7 -12 -7 -50
-1 -217 -20 -227 -27 -6 -4 -30 -9 -52 -11 -237 -21 -526 -53 -550 -60 -48
-14 -471 -10 -486 6 -11 10 -9 12 5 12 10 0 14 5 10 11 -5 8 1 10 18 6 22 -6
26 -4 24 17 -1 20 -6 23 -43 24 -71 1 -112 24 -50 28 12 1 63 5 112 9 50 3
118 8 151 9 34 2 79 9 100 16 22 8 71 14 109 15 39 1 114 6 168 10 79 6 97 11
97 24 1 13 2 13 11 -2 8 -14 14 -16 24 -7 8 7 19 9 25 5 5 -3 15 -3 22 1 8 5
6 10 -8 15 -27 11 -92 11 -96 0 -4 -11 -67 -16 -343 -31 -110 -6 -207 -13
-217 -16 -9 -3 -19 0 -23 6 -3 5 -21 9 -38 9 l-32 -1 30 -7 c19 -5 -18 -10
-105 -15 -74 -4 -143 -8 -152 -9 -10 -1 -18 -8 -18 -15 0 -10 -7 -12 -22 -8
-54 16 -200 17 -328 3 -74 -9 -193 -19 -265 -22 -143 -7 -178 -9 -370 -25 -71
-6 -233 -13 -358 -15 -127 -2 -234 -8 -240 -14 -7 -5 -34 -8 -60 -6 -33 2 -50
-1 -54 -10 -5 -15 -61 -37 -73 -30 -8 5 -62 11 -235 25 -81 6 -102 5 -111 -6
-6 -8 -17 -14 -24 -14 -8 0 -10 -8 -7 -21 5 -19 2 -21 -24 -17 -16 3 -29 1
-29 -4 0 -5 -31 -6 -69 -3 -44 4 -71 2 -76 -4 -3 -6 -22 -11 -41 -11 -21 0
-33 4 -29 10 3 6 -1 10 -9 10 -9 0 -16 -4 -16 -10 0 -5 -7 -7 -15 -4 -8 4 -15
1 -15 -5 0 -6 -12 -10 -27 -10 -24 2 -25 2 -6 6 25 5 32 23 9 23 -23 0 -46
-11 -41 -20 3 -4 -5 -8 -18 -8 -12 -1 -38 -2 -57 -3 -20 -2 -42 1 -49 6 -9 5
-12 4 -7 -3 8 -13 -24 -24 -62 -22 -42 3 -54 1 -48 -9 3 -5 62 -8 131 -7 75 0
127 -3 129 -9 3 -5 5 -4 5 3 1 16 42 15 66 -1 16 -13 13 -15 -30 -20 -26 -4
-53 -14 -59 -22 -9 -12 -18 -13 -46 -5 -39 11 -164 13 -223 4 l-37 -7 0 -2358
0 -2359 9600 0 9600 0 0 1400 c0 1073 -3 1400 -12 1400 -9 0 -9 3 0 12 9 9 12
75 12 235 l0 222 -32 5 c-18 3 -76 11 -128 17 -128 15 -133 16 -150 22 -22 8
-135 25 -210 32 -36 3 -87 10 -115 15 -27 5 -126 12 -220 14 -93 2 -177 6
-185 9 -19 8 -79 15 -190 23 -47 3 -92 10 -101 15 -28 15 -149 20 -149 6 0 -9
-2 -9 -8 1 -6 8 -77 19 -213 32 -112 11 -239 26 -282 34 -42 8 -108 18 -145
21 -223 20 -310 31 -437 56 -27 6 -108 17 -180 25 -71 9 -141 17 -155 19 -14
2 -74 7 -135 10 -200 11 -406 34 -525 60 -63 14 -132 22 -197 24 -18 1 -33 5
-33 11 0 5 21 7 50 3 39 -4 50 -3 50 8 0 9 3 10 8 3 8 -13 62 -25 62 -14 0 4
-8 11 -17 14 -15 6 -15 8 -3 16 8 6 22 10 30 10 13 0 13 -1 0 -10 -12 -8 -9
-10 13 -10 17 0 26 -4 22 -10 -4 -6 -11 -8 -16 -5 -5 4 -9 1 -9 -4 0 -6 11
-11 25 -11 17 0 25 6 25 17 0 16 1 16 17 1 15 -16 17 -16 30 0 11 12 16 14 19
5 3 -7 10 -13 15 -13 14 0 11 28 -3 33 -7 3 -3 6 10 6 12 1 22 -3 22 -8 0 -8
82 -31 110 -31 19 0 10 21 -12 30 -21 8 -21 9 -3 9 35 1 65 -11 65 -25 0 -8
-5 -14 -10 -14 -6 0 -5 -6 2 -14 14 -15 32 -11 23 5 -4 5 -3 18 0 29 5 16 10
18 26 10 11 -6 24 -8 29 -5 6 3 10 -2 11 -12 0 -16 1 -16 9 2 14 34 12 35 -57
35 -38 0 -75 5 -83 10 -10 7 20 10 98 8 61 -2 112 -5 112 -8 0 -3 15 -4 34 -2
28 3 35 9 40 34 6 30 7 30 59 26 28 -3 46 -3 39 -1 -15 6 -15 28 1 53 10 17 9
22 -3 30 -11 7 -2 10 30 10 35 0 42 -3 30 -11 -12 -9 -11 -9 5 -4 11 4 36 11
55 15 31 7 29 8 -22 9 -74 1 -76 21 -3 21 52 0 71 11 43 24 -7 3 -3 3 10 0 28
-7 152 16 152 28 0 4 -11 8 -24 8 -13 0 -26 6 -29 13 -5 14 -110 38 -173 39
l-42 0 10 35 c5 19 7 41 4 49 -4 11 9 13 67 10 43 -2 64 0 52 5 -11 4 -31 8
-44 8 -39 1 -13 16 32 18 73 4 150 11 197 19 35 6 40 9 25 15 -16 6 -16 8 -4
8 9 1 29 7 43 15 24 12 4 13 -161 12 -289 -2 -509 18 -683 62 -125 31 -162 36
-265 36 -77 1 -128 6 -142 14 -12 6 -53 12 -92 12 -61 0 -71 -2 -71 -17 0 -11
-15 -24 -41 -35 -22 -10 -38 -22 -35 -27 4 -6 4 -21 1 -34 -5 -20 -16 -25 -63
-34 -31 -6 -79 -8 -106 -6 -33 2 -52 0 -58 -9 -13 -21 -8 -34 6 -15 16 21 36
22 36 2 0 -8 -7 -15 -15 -15 -8 0 -15 -4 -15 -10 0 -5 -6 -10 -14 -10 -8 0
-22 -7 -30 -16 -18 -17 -22 -64 -5 -64 6 0 8 8 5 18 -4 10 1 27 9 38 15 18 15
18 10 -7 -4 -17 -1 -30 9 -38 20 -17 21 -32 1 -25 -8 4 -15 1 -15 -6 0 -8 8
-10 23 -5 32 10 96 12 90 2 -3 -4 -18 -5 -34 -2 -18 4 -29 3 -29 -4 0 -6 7
-11 15 -11 29 0 14 -25 -25 -42 -28 -11 -38 -21 -34 -31 4 -12 -3 -15 -38 -12
-24 2 -37 1 -30 -2 26 -10 11 -25 -20 -19 -18 4 -41 7 -51 7 -10 0 -30 4 -44
10 -18 6 -30 6 -39 -2 -17 -14 -18 -32 -1 -26 19 7 47 -12 41 -27 -3 -8 -1
-17 5 -21 14 -8 14 -55 1 -55 -5 0 -10 7 -10 16 0 8 -4 12 -10 9 -17 -10 -11
-25 13 -36 21 -9 -10 -7 -98 6 -42 6 -105 29 -105 38 0 5 -9 22 -21 38 -25 36
-161 102 -229 112 -14 2 -32 6 -40 9 -8 3 -37 11 -65 17 -47 11 -108 58 -111
86 -1 6 -2 14 -3 19 0 6 -8 1 -16 -10 -12 -16 -16 -17 -24 -4 -7 10 -6 17 2
22 9 6 8 8 -3 8 -20 0 -32 -10 -51 -40 -16 -25 -15 -50 2 -50 4 0 6 8 2 18 -4
12 -3 14 5 7 12 -11 5 -55 -9 -55 -5 0 -4 -9 3 -19 7 -11 16 -17 20 -14 5 2
16 -1 24 -8 8 -7 30 -12 48 -11 18 1 42 -6 52 -14 19 -15 18 -15 -1 -9 -66 23
-75 17 -12 -9 21 -8 35 -11 32 -6 -3 6 3 10 14 10 12 0 21 -4 21 -10 0 -5 4
-10 10 -10 18 0 -1 26 -28 38 -25 11 -24 11 13 6 22 -3 43 -10 46 -16 4 -7 9
-6 14 2 4 6 14 9 22 6 8 -3 20 -3 26 1 7 4 3 9 -9 14 -14 5 -9 7 16 6 19 0 29
-2 23 -4 -7 -3 -13 -10 -13 -16 0 -18 -31 -46 -46 -40 -8 3 -14 -1 -14 -10 0
-21 -70 -6 -183 41 -72 30 -96 45 -112 70 -11 18 -31 35 -45 38 -22 5 -69 58
-78 89 -2 6 2 2 8 -8 16 -25 53 -15 88 24 20 22 37 30 63 31 l35 1 -20 43
c-12 24 -28 45 -36 47 -8 2 8 7 35 11 102 14 205 46 205 63 0 7 -4 13 -10 13
-5 0 -10 -4 -10 -10 0 -5 -7 -7 -15 -4 -8 4 -15 9 -15 13 0 9 59 41 76 41 9 0
13 4 9 10 -5 8 21 18 90 33 49 11 -282 -5 -380 -18 -292 -39 -345 -48 -349
-54 -4 -5 -132 -7 -218 -2 -42 2 -33 18 12 23 22 2 40 0 40 -4 0 -16 51 -7 69
11 11 11 36 21 56 23 19 2 34 7 33 13 -2 5 11 13 27 17 l30 7 -32 -3 c-31 -2
-47 11 -20 18 6 2 28 8 47 14 19 6 54 13 77 14 22 2 39 6 37 10 -3 4 19 6 47
5 35 -1 54 2 57 11 3 9 22 11 70 8 48 -3 55 -3 27 3 l-40 7 35 7 c79 14 114
16 131 6 15 -7 19 -6 19 6 0 19 -33 19 -225 0 -77 -8 -174 -17 -215 -21 -42
-3 -93 -14 -116 -25 -23 -11 -58 -22 -79 -24 -20 -3 -41 -8 -47 -11 -5 -3 -23
-7 -41 -9 -18 -2 -61 -6 -97 -9 -36 -4 -79 -9 -97 -12 -17 -2 -34 0 -38 6 -6
9 8 15 29 11 9 -2 26 18 26 30 0 4 -17 1 -37 -7 -21 -7 -50 -13 -65 -14 -14 0
-28 -6 -31 -12 -3 -10 -9 -10 -25 -1 -15 9 -23 9 -28 2 -5 -8 -8 -8 -13 0 -4
6 -22 11 -40 13 -18 1 -35 6 -38 11 -3 5 3 8 13 7 11 -1 30 -2 43 -1 18 1 21
4 12 14 -8 11 0 16 39 27 28 8 50 18 50 23 0 5 6 7 13 4 6 -2 26 0 42 5 17 5
64 10 105 12 41 2 82 6 90 9 20 9 45 -7 35 -23 -6 -9 -9 -9 -16 1 -6 10 -9 11
-9 2 0 -7 -6 -13 -14 -13 -8 0 -17 -4 -21 -9 -8 -14 56 -8 80 7 17 10 18 13 5
21 -19 13 -6 26 17 16 10 -5 24 -7 31 -6 6 1 12 -3 12 -9 0 -5 12 -10 28 -10
26 1 26 1 -9 19 -23 11 -74 21 -140 26 -143 11 -456 14 -558 6 -58 -4 -85 -3
-88 5 -3 7 -25 10 -66 7 -43 -3 -100 4 -187 22 -95 21 -160 28 -270 30 -80 2
-197 7 -260 12 -112 9 -146 9 -339 -1 -52 -2 -102 -1 -110 4 -9 4 -53 10 -99
13 -70 4 -86 2 -106 -14 -24 -19 -53 -17 -68 5 -5 8 -8 8 -8 0 0 -8 -57 -10
-197 -8 -109 2 -226 3 -260 4 -35 0 -63 3 -63 8 0 4 83 7 185 7 166 0 211 5
173 18 -7 2 -4 2 7 0 49 -11 75 -10 65 2 -8 10 -1 14 25 19 19 4 40 4 45 1 5
-3 18 0 29 7 15 9 23 9 35 -1 17 -14 40 -6 30 11 -3 5 2 9 12 8 48 -5 72 1 77
20 4 17 9 18 38 10 19 -6 40 -10 46 -10 19 0 16 18 -4 23 -11 2 -9 3 4 2 12
-1 27 1 34 6 7 4 23 3 35 -1 13 -6 24 -5 26 0 2 6 27 15 56 22 28 7 52 16 52
20 0 4 -27 6 -60 4 -34 -1 -63 1 -65 5 -3 4 -46 5 -95 3 -60 -2 -89 0 -85 7 4
5 25 10 48 10 110 0 185 5 180 12 -2 4 21 7 51 7 30 0 57 4 60 8 5 8 -279 5
-302 -3 -7 -3 -11 -1 -8 3 3 5 -59 13 -138 19 -79 6 -154 16 -166 23 -21 11
-110 9 -260 -6 -14 -1 -36 -3 -49 -3 -14 -1 -21 -6 -18 -14 3 -9 -9 -11 -57
-6 -129 14 -172 21 -205 36 -22 10 -49 13 -75 10 -46 -6 -116 1 -369 39 -59 9
-106 18 -104 20 1 2 29 4 60 5 32 1 60 6 64 12 3 5 -25 8 -73 6 -44 -2 -86 0
-94 6 -8 5 -67 15 -130 22 -150 16 -151 16 -148 28 2 6 6 9 10 8 13 -5 9 14
-5 26 -8 6 -17 8 -20 4 -4 -3 -7 -1 -7 5 0 7 7 12 15 12 8 0 15 5 15 10 0 7
31 9 90 6 53 -2 92 0 96 5 6 10 -65 9 -283 -2 -45 -2 -77 -1 -71 2 20 13 -79
20 -106 8 -20 -10 -34 -9 -67 1 -22 8 -54 14 -72 14 -51 0 -250 -15 -258 -20
-4 -2 -71 -4 -148 -5 -78 0 -154 -4 -168 -8 -33 -9 -44 -32 -11 -24 19 5 21 3
10 -8 -10 -10 -45 -14 -130 -15 -64 -1 -188 -3 -275 -4 -136 -2 -161 1 -177
15 -10 9 -38 18 -62 20 -24 2 -84 10 -134 16 -53 7 -103 9 -120 4 -39 -11 -74
-13 -80 -3 -9 13 -24 9 -24 -7 0 -10 11 -15 33 -16 40 -2 37 -2 71 7 20 5 27
4 22 -4 -4 -7 11 -12 46 -15 43 -3 -159 -1 -554 4 -32 1 -58 5 -58 10 0 5 20
6 45 2 31 -4 50 -1 62 8 11 9 14 10 9 2 -5 -9 -1 -13 13 -13 11 0 23 5 27 11
4 7 25 9 53 7 25 -3 38 -3 28 -1 -9 3 -15 8 -13 12 9 14 -179 -1 -263 -21 -97
-22 -126 -26 -312 -37 -104 -6 -144 -13 -168 -27 -17 -10 -31 -24 -31 -30 0
-16 -24 -24 -68 -24 -72 0 -142 -13 -142 -25 0 -22 -40 -24 -85 -4 -24 11 -61
19 -82 19 -21 0 -94 2 -162 6 -91 5 -122 4 -117 -5 12 -20 -37 -12 -64 10 -20
17 -21 20 -5 14 46 -17 60 -18 49 -6 -6 7 -40 14 -75 16 -93 5 -172 16 -186
27 -7 6 -23 8 -37 4 -13 -3 -48 2 -77 11 -34 10 -93 16 -159 17 -88 1 -111 4
-140 22 -27 17 -58 23 -135 27 -55 3 -111 10 -125 15 -25 10 91 8 205 -3 81
-8 176 -5 194 7 13 8 25 6 49 -6 38 -20 42 -20 42 -1 0 8 7 15 15 15 8 0 15
-7 15 -15 0 -13 10 -15 49 -12 28 3 52 2 55 -1 3 -3 17 -7 31 -8 28 -3 34 12
8 19 -12 3 -8 5 9 6 14 0 29 -5 31 -11 4 -10 8 -9 17 2 9 11 13 12 17 3 2 -7
9 -13 14 -13 6 0 8 4 4 9 -3 6 12 12 32 14 28 3 20 5 -27 7 -76 4 -67 2 -152
20 -70 14 -76 18 -56 38 9 9 5 11 -18 8 -16 -2 -67 10 -114 26 -75 25 -102 30
-225 33 -77 2 -160 0 -184 -5z m518 -96 c14 -12 -19 -1 -35 12 -18 14 -18 14
6 3 14 -6 27 -13 29 -15z m-1082 -130 c-3 -3 -12 -4 -19 -1 -8 3 -5 6 6 6 11
1 17 -2 13 -5z m3064 -58 c-11 -13 -3 -14 51 -11 40 2 56 0 43 -5 -11 -5 -56
-9 -100 -8 -66 0 -74 1 -47 9 17 5 32 14 32 19 0 6 7 10 16 10 13 0 14 -3 5
-14z m102 7 c-7 -2 -19 -2 -25 0 -7 3 -2 5 12 5 14 0 19 -2 13 -5z m222 -13
c-3 -5 -12 -10 -18 -10 -7 0 -6 4 3 10 19 12 23 12 15 0z m1975 6 c0 -8 -61
-12 -66 -4 -3 4 11 8 30 8 20 0 36 -2 36 -4z m-3280 -16 c-19 -13 -30 -13 -30
0 0 6 10 10 23 10 18 0 19 -2 7 -10z m3190 -10 c0 -5 -2 -10 -4 -10 -3 0 -8 5
-11 10 -3 6 -1 10 4 10 6 0 11 -4 11 -10z m92 -21 c18 -13 46 -22 73 -23 53
-1 73 -16 22 -16 -20 0 -37 -5 -37 -10 0 -14 93 -10 102 4 5 8 13 7 27 -1 10
-6 45 -15 77 -18 33 -4 61 -11 62 -16 5 -13 46 -11 60 3 9 9 12 9 12 0 0 -7
26 -12 73 -14 51 -2 71 -7 70 -15 -2 -7 4 -13 13 -13 8 0 12 -5 9 -11 -8 -12
-186 -4 -194 10 -10 14 -73 30 -156 40 -63 7 -85 6 -102 -5 -12 -8 -31 -14
-41 -14 -10 0 -23 -5 -28 -10 -6 -6 -41 -12 -79 -15 -49 -3 -74 -10 -89 -24
-19 -17 -25 -18 -66 -5 -25 8 -58 14 -73 14 -16 0 -26 4 -22 10 3 6 18 10 33
10 26 1 26 1 8 15 -14 11 -16 15 -5 15 27 0 -44 30 -75 31 -27 2 -28 2 -6 6
14 3 32 11 40 18 23 20 57 27 65 14 5 -8 9 -8 14 0 4 6 31 12 61 14 30 3 66 9
80 15 35 15 38 15 72 -9z m-1704 -66 c-10 -2 -28 -2 -40 0 -13 2 -5 4 17 4 22
1 32 -1 23 -4z m56 -28 c-24 -18 -35 -19 -28 -2 2 7 14 13 25 14 21 2 21 1 3
-12z m2833 9 c-3 -3 -12 -4 -19 -1 -8 3 -5 6 6 6 11 1 17 -2 13 -5z m-3232
-14 c3 -6 -4 -10 -17 -10 -18 0 -20 2 -8 10 19 12 18 12 25 0z m112 4 c-3 -3
-12 -4 -19 -1 -8 3 -5 6 6 6 11 1 17 -2 13 -5z m1653 -9 c0 -12 -19 -12 -23 0
-4 9 -1 12 9 8 7 -3 14 -7 14 -8z m-1707 -2 c-7 -2 -21 -2 -30 0 -10 3 -4 5
12 5 17 0 24 -2 18 -5z m2647 -19 c0 -2 -18 -4 -41 -4 -22 0 -38 4 -35 8 5 8
76 4 76 -4z m815 6 c7 -12 -2 -12 -30 0 -19 8 -19 9 2 9 12 1 25 -3 28 -9z
m-697 -7 c-10 -2 -28 -2 -40 0 -13 2 -5 4 17 4 22 1 32 -1 23 -4z m-8859 -19
c10 -9 -55 -3 -69 6 -10 6 -2 7 25 3 22 -3 42 -7 44 -9z m48 0 c-3 -3 -12 -4
-19 -1 -8 3 -5 6 6 6 11 1 17 -2 13 -5z m6503 -14 c0 -5 -12 -10 -27 -9 -25 0
-26 1 -8 9 27 12 35 12 35 0z m-5642 -16 c12 -8 35 -22 50 -30 25 -13 19 -14
-80 -14 -58 0 -115 -3 -125 -6 -13 -4 -14 -3 -5 3 9 7 1 13 -28 22 -22 6 -45
9 -50 6 -5 -3 -11 -1 -15 5 -7 11 -4 12 117 14 47 0 90 4 94 9 11 10 17 9 42
-9z m-271 0 c-3 -3 -12 -4 -19 -1 -8 3 -5 6 6 6 11 1 17 -2 13 -5z m8613 -78
c0 -2 -8 -10 -17 -17 -16 -13 -17 -12 -4 4 13 16 21 21 21 13z m77 -12 c-3 -3
-12 -4 -19 -1 -8 3 -5 6 6 6 11 1 17 -2 13 -5z m-1422 -29 c39 -2 72 -4 75 -5
17 -2 -30 -20 -52 -20 -18 0 -28 -5 -28 -15 0 -11 -12 -15 -49 -15 -58 0 -81
-7 -81 -25 0 -14 -63 -55 -84 -55 -8 0 -16 -9 -19 -21 -3 -13 -10 -18 -17 -14
-8 5 -11 -1 -8 -16 2 -19 -1 -23 -17 -21 -11 2 -35 4 -52 5 -36 2 -46 17 -12
17 43 0 6 19 -49 25 -31 3 -72 8 -90 11 -23 4 -32 2 -27 -5 3 -6 2 -11 -4 -11
-5 0 -11 4 -13 10 -4 13 -79 -5 -89 -21 -4 -8 -1 -18 9 -25 15 -11 14 -14 -10
-23 -21 -8 -25 -14 -20 -33 5 -21 4 -22 -12 -9 -14 12 -19 12 -25 2 -6 -9 -11
-8 -21 4 -13 15 -8 19 22 16 11 -2 16 5 15 18 -1 12 -6 21 -12 22 -5 0 -27 1
-48 3 -26 2 -41 -2 -48 -13 -8 -13 -9 -11 -4 7 6 19 3 22 -22 21 -25 0 -26 -1
-8 -10 16 -7 13 -8 -12 -5 -18 3 -35 1 -38 -4 -3 -6 1 -7 9 -4 9 3 16 1 16 -5
0 -6 7 -11 15 -11 8 0 15 -4 15 -10 0 -13 -27 -13 -35 0 -3 5 -12 7 -20 3 -8
-3 -15 0 -15 6 0 6 -8 11 -17 11 -10 0 -26 12 -36 25 -17 24 -17 25 3 25 11 0
20 5 20 12 0 9 3 9 12 0 16 -16 28 -15 28 1 0 6 10 12 23 13 128 5 164 8 175
17 10 8 16 7 24 -4 5 -8 11 -10 14 -4 2 6 23 9 45 7 22 -3 45 0 51 6 7 7 -3 9
-33 6 -28 -3 -37 -1 -25 4 15 7 12 10 -21 20 -22 7 -50 12 -61 12 -15 0 -20 5
-16 15 4 8 1 15 -5 15 -6 0 -11 -6 -11 -14 0 -19 -17 -23 -136 -31 -78 -5
-108 -4 -136 8 -20 9 -39 13 -42 10 -3 -3 -17 2 -30 11 -14 9 -40 16 -57 16
-42 0 -32 10 14 13 20 2 38 -1 40 -7 3 -7 14 -3 27 9 13 11 20 14 16 8 -5 -10
3 -13 31 -14 21 -1 44 -1 51 0 6 1 12 -3 12 -8 0 -6 6 -8 13 -6 6 2 31 7 55 9
23 3 46 8 52 11 5 3 18 0 29 -7 15 -9 23 -9 33 0 11 8 26 8 63 -4 42 -12 51
-12 63 0 10 10 22 12 44 5 25 -7 29 -6 23 8 -5 15 -4 15 13 0 20 -19 37 -23
27 -7 -8 13 1 13 27 -1 11 -6 18 -7 15 -2 -3 5 27 9 66 11 118 3 157 7 157 15
0 4 16 7 35 7 19 0 35 5 35 11 0 7 14 9 43 4 23 -4 74 -8 112 -10z m195 5 c0
-6 -25 -9 -57 -8 l-58 1 55 7 c30 4 56 7 58 8 1 1 2 -2 2 -8z m-9373 -24 c-2
-6 -30 -11 -68 -12 -56 -1 -58 0 -11 3 40 3 52 8 49 17 -4 10 1 12 14 9 11 -3
18 -11 16 -17z m9431 17 c-10 -2 -26 -2 -35 0 -10 3 -2 5 17 5 19 0 27 -2 18
-5z m-9305 -10 c-7 -2 -19 -2 -25 0 -7 3 -2 5 12 5 14 0 19 -2 13 -5z m-86 -9
c-3 -3 -12 -4 -19 -1 -8 3 -5 6 6 6 11 1 17 -2 13 -5z m7960 -100 c-3 -3 -12
-4 -19 -1 -8 3 -5 6 6 6 11 1 17 -2 13 -5z m748 -64 c3 -5 1 -10 -4 -10 -6 0
-11 5 -11 10 0 6 2 10 4 10 3 0 8 -4 11 -10z m45 0 c0 -5 -5 -10 -11 -10 -5 0
-7 5 -4 10 3 6 8 10 11 10 2 0 4 -4 4 -10z m4580 0 c0 -12 -8 -12 -35 0 -18 8
-17 9 8 9 15 1 27 -3 27 -9z m-5163 -31 c8 -8 13 -8 17 0 4 6 12 11 19 11 6 0
1 -7 -11 -16 -22 -15 -62 -11 -62 7 0 12 24 11 37 -2z m240 -36 c-11 -10 -57
-13 -57 -2 0 5 14 9 32 9 17 0 28 -3 25 -7z m3993 -9 c0 -12 6 -15 21 -11 12
3 18 2 13 -2 -11 -9 -109 -43 -176 -61 -27 -7 -48 -18 -48 -24 0 -18 -137 -48
-245 -54 -63 -3 -108 -10 -122 -20 -26 -16 -53 -10 -53 13 0 8 3 14 8 13 25
-7 142 30 142 44 0 4 14 6 30 4 17 -2 30 0 30 4 0 8 49 25 64 21 4 -1 14 3 22
10 8 6 21 8 30 5 11 -4 15 -2 11 6 -4 13 11 17 76 20 15 0 27 4 27 7 0 4 17 6
38 4 32 -2 34 -1 12 7 -19 7 -10 9 38 7 44 -1 62 2 62 11 0 6 5 12 10 12 6 0
10 -7 10 -16z m675 -14 c4 -6 -5 -10 -20 -10 -15 0 -24 4 -20 10 3 6 12 10 20
10 8 0 17 -4 20 -10z m-90 -30 c-3 -5 -16 -10 -28 -10 -18 0 -19 2 -7 10 20
13 43 13 35 0z m645 -60 c0 -5 -4 -10 -10 -10 -5 0 -10 5 -10 10 0 6 5 10 10
10 6 0 10 -4 10 -10z m-70 -40 c-8 -5 -22 -10 -30 -10 -13 0 -13 1 0 10 8 5
22 10 30 10 13 0 13 -1 0 -10z m-1010 -60 c0 -5 -5 -10 -11 -10 -5 0 -7 5 -4
10 3 6 8 10 11 10 2 0 4 -4 4 -10z m40 -6 c0 -8 -5 -12 -10 -9 -6 4 -8 11 -5
16 9 14 15 11 15 -7z m-40 -24 c0 -10 -52 -20 -64 -13 -4 3 -4 8 2 12 15 9 62
10 62 1z m-10 -30 c8 -5 11 -12 8 -16 -10 -9 -38 3 -38 16 0 12 10 13 30 0z
m3193 -157 c-13 -2 -35 -2 -50 0 -16 2 -5 4 22 4 28 0 40 -2 28 -4z m-1897
-88 c-21 -16 -32 -13 -21 4 3 6 14 11 23 11 15 -1 15 -2 -2 -15z m58 -11 c26
-10 18 -23 -10 -18 -14 3 -33 -1 -42 -8 -14 -12 -14 -11 -1 10 14 23 26 26 53
16z m1789 -121 c-7 -2 -19 -2 -25 0 -7 3 -2 5 12 5 14 0 19 -2 13 -5z m-593
-31 c0 -4 -17 -6 -37 -4 -59 5 -63 10 -10 11 26 1 47 -3 47 -7z m123 -19 c-7
-2 -21 -2 -30 0 -10 3 -4 5 12 5 17 0 24 -2 18 -5z m87 -23 c0 -5 -4 -10 -10
-10 -5 0 -10 5 -10 10 0 6 5 10 10 10 6 0 10 -4 10 -10z m-501 -36 c12 -10
-12 -10 -99 2 l-95 12 95 -5 c52 -3 97 -7 99 -9z m178 1 c0 -8 -4 -15 -9 -15
-10 0 -11 14 -1 23 9 10 10 9 10 -8z m-130 -11 c-3 -3 -12 -4 -19 -1 -8 3 -5
6 6 6 11 1 17 -2 13 -5z m33 -4 c0 -5 -4 -10 -10 -10 -5 0 -10 5 -10 10 0 6 5
10 10 10 6 0 10 -4 10 -10z m3483 -437 c-7 -2 -19 -2 -25 0 -7 3 -2 5 12 5 14
0 19 -2 13 -5z m64 -9 c-3 -3 -12 -4 -19 -1 -8 3 -5 6 6 6 11 1 17 -2 13 -5z
m83 -504 c0 -5 -2 -10 -4 -10 -3 0 -8 5 -11 10 -3 6 -1 10 4 10 6 0 11 -4 11
-10z m110 -10 c0 -5 -7 -7 -15 -4 -8 4 -15 8 -15 10 0 2 7 4 15 4 8 0 15 -4
15 -10z m-43 -6 c-3 -3 -12 -4 -19 -1 -8 3 -5 6 6 6 11 1 17 -2 13 -5z"/>
<path d="M9800 5021 c0 -5 9 -11 21 -14 16 -4 18 -3 8 9 -13 16 -29 19 -29 5z"/>
<path d="M9594 4959 c-3 -5 9 -9 25 -9 17 0 31 2 31 4 0 8 -51 13 -56 5z"/>
<path d="M9185 4620 c3 -5 8 -10 11 -10 2 0 4 5 4 10 0 6 -5 10 -11 10 -5 0
-7 -4 -4 -10z"/>
<path d="M9361 4584 c0 -11 3 -14 6 -6 3 7 2 16 -1 19 -3 4 -6 -2 -5 -13z"/>
<path d="M5785 5370 c-27 -7 -28 -8 -5 -8 14 0 34 3 45 8 25 11 2 11 -40 0z"/>
<path d="M5851 5366 c7 -8 118 -10 126 -3 3 4 -24 7 -62 7 -38 0 -66 -2 -64
-4z"/>
<path d="M6000 5354 c34 -7 158 -9 147 -2 -7 4 -46 7 -87 7 -41 -1 -68 -3 -60
-5z"/>
<path d="M6210 5350 c25 -4 54 -4 65 1 13 5 -3 8 -45 7 -63 0 -63 -1 -20 -8z"/>
<path d="M1750 5342 c0 -6 -9 -8 -20 -5 -11 3 -20 0 -20 -6 0 -12 1 -12 38
-16 13 -1 28 -7 35 -14 6 -6 22 -10 37 -10 16 1 19 3 8 6 -10 2 -18 9 -18 14
0 5 -6 9 -14 9 -8 0 -22 7 -30 16 -9 8 -16 11 -16 6z"/>
<path d="M6338 5343 c12 -2 32 -2 45 0 12 2 2 4 -23 4 -25 0 -35 -2 -22 -4z"/>
<path d="M4740 5330 c0 -5 7 -7 15 -4 8 4 15 8 15 10 0 2 -7 4 -15 4 -8 0 -15
-4 -15 -10z"/>
<path d="M4908 5333 c7 -3 16 -2 19 1 4 3 -2 6 -13 5 -11 0 -14 -3 -6 -6z"/>
<path d="M2840 5286 c0 -2 7 -9 15 -16 12 -10 15 -10 15 4 0 9 -7 16 -15 16
-8 0 -15 -2 -15 -4z"/>
<path d="M2727 5273 c18 -2 50 -2 70 0 21 2 7 4 -32 4 -38 0 -55 -2 -38 -4z"/>
<path d="M5878 5263 c6 -2 18 -2 25 0 6 3 1 5 -13 5 -14 0 -19 -2 -12 -5z"/>
<path d="M5948 5253 c7 -3 16 -2 19 1 4 3 -2 6 -13 5 -11 0 -14 -3 -6 -6z"/>
<path d="M7930 5250 c-11 -7 -6 -10 20 -10 26 0 31 3 20 10 -8 5 -17 10 -20
10 -3 0 -12 -5 -20 -10z"/>
<path d="M6105 5240 c-3 -5 -1 -10 4 -10 6 0 11 5 11 10 0 6 -2 10 -4 10 -3 0
-8 -4 -11 -10z"/>
<path d="M7420 5246 c0 -9 30 -14 35 -6 4 6 -3 10 -14 10 -12 0 -21 -2 -21 -4z"/>
<path d="M7490 5246 c0 -2 9 -6 20 -9 11 -3 20 -1 20 4 0 5 -9 9 -20 9 -11 0
-20 -2 -20 -4z"/>
<path d="M7568 5243 c7 -3 16 -2 19 1 4 3 -2 6 -13 5 -11 0 -14 -3 -6 -6z"/>
<path d="M7888 5243 c7 -3 16 -2 19 1 4 3 -2 6 -13 5 -11 0 -14 -3 -6 -6z"/>
<path d="M5791 5229 c9 -4 45 -4 80 0 l64 8 -80 1 c-49 0 -73 -3 -64 -9z"/>
<path d="M6030 5230 c0 -5 5 -10 10 -10 6 0 10 5 10 10 0 6 -4 10 -10 10 -5 0
-10 -4 -10 -10z"/>
<path d="M9808 5233 c7 -3 16 -2 19 1 4 3 -2 6 -13 5 -11 0 -14 -3 -6 -6z"/>
<path d="M15 5220 c-3 -5 1 -10 9 -10 9 0 16 5 16 10 0 6 -4 10 -9 10 -6 0
-13 -4 -16 -10z"/>
<path d="M70 5220 c0 -5 7 -7 15 -4 8 4 15 8 15 10 0 2 -7 4 -15 4 -8 0 -15
-4 -15 -10z"/>
<path d="M218 5223 c7 -3 16 -2 19 1 4 3 -2 6 -13 5 -11 0 -14 -3 -6 -6z"/>
<path d="M258 5223 c7 -3 16 -2 19 1 4 3 -2 6 -13 5 -11 0 -14 -3 -6 -6z"/>
<path d="M118 5213 c7 -3 16 -2 19 1 4 3 -2 6 -13 5 -11 0 -14 -3 -6 -6z"/>
<path d="M527 5147 c-42 -8 -56 -14 -53 -24 4 -10 -1 -12 -18 -7 -19 4 -22 2
-21 -17 2 -28 48 -53 74 -40 16 9 112 13 281 14 25 0 38 2 30 5 -8 2 -49 19
-90 37 -92 39 -128 45 -203 32z"/>
<path d="M10310 5109 c0 -5 -46 -10 -102 -11 l-103 -2 83 -3 c69 -3 82 -6 82
-21 0 -13 2 -14 9 -3 7 11 9 11 14 0 4 -9 6 -7 7 6 2 17 3 16 10 -5 8 -24 8
-24 9 -2 1 12 5 22 11 22 5 0 7 -7 4 -15 -4 -8 -1 -15 5 -15 18 0 8 48 -11 53
-10 3 -18 1 -18 -4z"/>
<path d="M10365 5110 c-3 -5 1 -10 10 -10 9 0 13 5 10 10 -3 6 -8 10 -10 10
-2 0 -7 -4 -10 -10z"/>
<path d="M4600 5100 c0 -6 7 -10 15 -10 8 0 15 2 15 4 0 2 -7 6 -15 10 -8 3
-15 1 -15 -4z"/>
<path d="M10055 5100 c-3 -5 -1 -10 4 -10 6 0 11 5 11 10 0 6 -2 10 -4 10 -3
0 -8 -4 -11 -10z"/>
<path d="M10408 5103 c7 -3 16 -2 19 1 4 3 -2 6 -13 5 -11 0 -14 -3 -6 -6z"/>
<path d="M10635 5090 c-3 -6 1 -7 9 -4 18 7 21 14 7 14 -6 0 -13 -4 -16 -10z"/>
<path d="M10690 5096 c0 -2 9 -6 20 -9 11 -3 18 -1 14 4 -5 9 -34 13 -34 5z"/>
<path d="M10785 5090 c3 -5 18 -10 33 -9 24 0 25 1 7 9 -28 12 -47 12 -40 0z"/>
<path d="M10158 5073 c7 -3 16 -2 19 1 4 3 -2 6 -13 5 -11 0 -14 -3 -6 -6z"/>
<path d="M10370 5066 c0 -8 6 -16 14 -19 10 -4 12 0 9 14 -6 22 -23 26 -23 5z"/>
<path d="M10407 5062 c5 -22 33 -25 33 -5 0 8 -4 11 -10 8 -5 -3 -10 -1 -10 4
0 6 -4 11 -9 11 -5 0 -7 -8 -4 -18z"/>
<path d="M368 5063 c7 -3 16 -2 19 1 4 3 -2 6 -13 5 -11 0 -14 -3 -6 -6z"/>
<path d="M10236 5062 c-3 -5 1 -9 9 -9 8 0 15 4 15 9 0 4 -4 8 -9 8 -6 0 -12
-4 -15 -8z"/>
<path d="M10450 5050 c0 -11 5 -20 11 -20 5 0 8 4 5 9 -4 5 6 8 21 6 15 -1 29
-8 31 -14 2 -6 10 -11 18 -11 21 0 6 26 -22 39 -39 17 -64 14 -64 -9z"/>
<path d="M3010 5052 c0 -5 17 -9 38 -9 32 -1 34 0 12 7 -35 11 -50 11 -50 2z"/>
<path d="M11207 5039 c-9 -5 -21 -7 -27 -4 -13 8 -61 -5 -55 -15 3 -5 22 -6
44 -3 23 3 41 1 45 -6 4 -6 30 -11 57 -11 31 0 48 4 44 10 -3 6 3 10 15 10 12
0 18 5 15 10 -4 6 -10 8 -15 5 -5 -3 -19 -1 -33 4 -16 6 -28 6 -35 -1 -6 -6
-12 -6 -16 1 -9 13 -16 13 -39 0z"/>
<path d="M10480 5029 c0 -5 5 -7 10 -4 6 3 10 8 10 11 0 2 -4 4 -10 4 -5 0
-10 -5 -10 -11z"/>
<path d="M480 5020 c0 -6 39 -10 96 -10 61 0 93 4 89 10 -3 6 -46 10 -96 10
-53 0 -89 -4 -89 -10z"/>
<path d="M350 5013 c-40 -7 -44 -19 -5 -15 19 2 38 8 41 13 3 5 2 8 -3 8 -4
-1 -19 -4 -33 -6z"/>
<path d="M425 5010 l-30 -8 32 -1 c17 0 35 4 38 9 7 11 3 11 -40 0z"/>
<path d="M10 4970 c0 -5 5 -10 10 -10 6 0 10 5 10 10 0 6 -4 10 -10 10 -5 0
-10 -4 -10 -10z"/>
<path d="M11710 4970 c0 -5 5 -10 10 -10 6 0 10 5 10 10 0 6 -4 10 -10 10 -5
0 -10 -4 -10 -10z"/>
<path d="M11688 4913 c6 -2 18 -2 25 0 6 3 1 5 -13 5 -14 0 -19 -2 -12 -5z"/>
<path d="M458 4843 c6 -2 18 -2 25 0 6 3 1 5 -13 5 -14 0 -19 -2 -12 -5z"/>
<path d="M11368 4833 c7 -3 16 -2 19 1 4 3 -2 6 -13 5 -11 0 -14 -3 -6 -6z"/>
<path d="M11125 4780 c3 -5 11 -10 16 -10 6 0 7 5 4 10 -3 6 -11 10 -16 10 -6
0 -7 -4 -4 -10z"/>
<path d="M147 4749 c12 -4 44 -9 70 -10 26 -1 54 -6 61 -12 8 -7 12 -5 12 7 0
9 -8 16 -17 17 -109 6 -145 5 -126 -2z"/>
<path d="M12198 4743 c7 -3 16 -2 19 1 4 3 -2 6 -13 5 -11 0 -14 -3 -6 -6z"/>
<path d="M14560 4639 c-33 -4 -16 -6 62 -10 59 -2 104 -1 100 3 -10 9 -109 14
-162 7z"/>
<path d="M14805 4640 c-13 -5 -14 -9 -5 -9 8 0 24 4 35 9 13 5 14 9 5 9 -8 0
-24 -4 -35 -9z"/>
<path d="M14378 4624 c9 -7 19 -9 22 -4 3 5 23 10 45 13 25 2 17 4 -22 3 -50
0 -58 -2 -45 -12z"/>
<path d="M14928 4633 c12 -2 30 -2 40 0 9 3 -1 5 -23 4 -22 0 -30 -2 -17 -4z"/>
<path d="M14998 4633 c6 -2 18 -2 25 0 6 3 1 5 -13 5 -14 0 -19 -2 -12 -5z"/>
<path d="M15088 4633 c7 -3 16 -2 19 1 4 3 -2 6 -13 5 -11 0 -14 -3 -6 -6z"/>
<path d="M14123 4617 c-3 -4 45 -7 106 -6 62 1 114 6 116 10 3 4 -45 6 -106 5
-61 0 -113 -5 -116 -9z"/>
<path d="M13665 4480 c3 -5 8 -10 11 -10 2 0 4 5 4 10 0 6 -5 10 -11 10 -5 0
-7 -4 -4 -10z"/>
<path d="M14408 4473 c6 -2 18 -2 25 0 6 3 1 5 -13 5 -14 0 -19 -2 -12 -5z"/>
<path d="M16496 4192 c-3 -6 -1 -14 5 -17 15 -10 25 3 12 16 -7 7 -13 7 -17 1z"/>
<path d="M16450 4180 c0 -5 7 -10 15 -10 8 0 15 5 15 10 0 6 -7 10 -15 10 -8
0 -15 -4 -15 -10z"/>
<path d="M16320 4145 c0 -7 6 -16 13 -19 10 -5 10 -7 0 -12 -23 -10 -14 -23
16 -22 24 1 28 5 27 24 -1 27 -56 55 -56 29z"/>
<path d="M16415 4140 c3 -5 8 -10 11 -10 2 0 4 5 4 10 0 6 -5 10 -11 10 -5 0
-7 -4 -4 -10z"/>
<path d="M16505 3970 c3 -5 8 -10 11 -10 2 0 4 5 4 10 0 6 -5 10 -11 10 -5 0
-7 -4 -4 -10z"/>
<path d="M14225 3950 c3 -5 8 -10 11 -10 2 0 4 5 4 10 0 6 -5 10 -11 10 -5 0
-7 -4 -4 -10z"/>
<path d="M16292 3871 c-11 -7 -10 -10 3 -15 23 -9 25 -8 25 9 0 17 -9 19 -28
6z"/>
<path d="M16162 3800 c0 -14 2 -19 5 -12 2 6 2 18 0 25 -3 6 -5 1 -5 -13z"/>
<path d="M16240 3800 c0 -5 9 -10 20 -10 11 0 20 5 20 10 0 6 -9 10 -20 10
-11 0 -20 -4 -20 -10z"/>
<path d="M16295 3780 c3 -5 10 -10 16 -10 5 0 9 5 9 10 0 6 -7 10 -16 10 -8 0
-12 -4 -9 -10z"/>
<path d="M16030 3734 c0 -14 4 -23 10 -19 6 3 10 15 10 26 0 10 -4 19 -10 19
-5 0 -10 -12 -10 -26z"/>
<path d="M16070 3743 c0 -9 16 -13 45 -13 25 0 45 4 45 9 0 5 -20 11 -45 13
-31 2 -45 -1 -45 -9z"/>
<path d="M16240 3720 c0 -5 8 -10 18 -10 10 0 23 -5 29 -11 6 -6 22 -7 38 -3
34 8 18 19 -42 28 -27 4 -43 2 -43 -4z"/>
<path d="M15970 3710 c0 -5 5 -10 10 -10 6 0 10 5 10 10 0 6 -4 10 -10 10 -5
0 -10 -4 -10 -10z"/>
<path d="M16378 3693 c7 -3 16 -2 19 1 4 3 -2 6 -13 5 -11 0 -14 -3 -6 -6z"/>
<path d="M16245 3680 c4 -6 10 -8 15 -5 5 3 11 -3 13 -12 4 -14 5 -13 6 5 1
16 -5 22 -20 22 -11 0 -17 -5 -14 -10z"/>
<path d="M16358 3673 c7 -3 16 -2 19 1 4 3 -2 6 -13 5 -11 0 -14 -3 -6 -6z"/>
<path d="M16308 3633 c7 -3 16 -2 19 1 4 3 -2 6 -13 5 -11 0 -14 -3 -6 -6z"/>
<path d="M19028 3473 c7 -3 16 -2 19 1 4 3 -2 6 -13 5 -11 0 -14 -3 -6 -6z"/>
<path d="M18058 3413 c7 -3 16 -2 19 1 4 3 -2 6 -13 5 -11 0 -14 -3 -6 -6z"/>
<path d="M18253 3403 c9 -2 23 -2 30 0 6 3 -1 5 -18 5 -16 0 -22 -2 -12 -5z"/>
<path d="M18338 3403 c6 -2 18 -2 25 0 6 3 1 5 -13 5 -14 0 -19 -2 -12 -5z"/>
<path d="M18408 3403 c6 -2 18 -2 25 0 6 3 1 5 -13 5 -14 0 -19 -2 -12 -5z"/>
<path d="M18538 3393 c7 -3 16 -2 19 1 4 3 -2 6 -13 5 -11 0 -14 -3 -6 -6z"/>
<path d="M18578 3393 c7 -3 16 -2 19 1 4 3 -2 6 -13 5 -11 0 -14 -3 -6 -6z"/>
<path d="M18628 3393 c7 -3 16 -2 19 1 4 3 -2 6 -13 5 -11 0 -14 -3 -6 -6z"/>
</g>
</svg>
